PathFileType	4	(X/Y/Z)	OpenSim_Sub02_EMGBaseline_Magnet.trc
DataRate	CameraRate	NumFrames	NumMarkers	Units	OrigDataRate	OrigDataStartFrame	OrigNumFrames
100	100	26	8	m	100	841	6727
Frame#	Time	torso_imu_offset_imu	pelvis_imu_offset_imu	tibia_r_imu_offset_imu	femur_r_imu_offset_imu	tibia_l_imu_offset_imu	femur_l_imu_offset_imu	toes_r_imu_offset_imu	toes_l_imu_offset_imu
				X1	Y1	Z1	X2	Y2	Z2	X3	Y3	Z3	X4	Y4	Z4	X5	Y5	Z5	X6	Y6	Z6	X7	Y7	Z7	X8		Y8	Z8	

841	8.40000000	-0.92615229	-0.24093379	-0.00355620	-0.63655218	0.27106057	-0.64606869	-0.58796591	-0.44161988	-0.39404483	-0.84847370	-0.15509433	-0.05653029	-0.59437188	0.59401876	0.11295727	-0.54549536	0.43676868	0.46255780	-0.52169654	-0.36147387	-0.45045420	-0.70761434	-0.16935389	-0.51598300
842	8.41000000	-0.92848025	-0.24351776	-0.00090134	-0.63282966	0.26815179	-0.64712223	-0.60648152	-0.42522927	-0.37922003	-0.85007374	-0.16002831	-0.05749316	-0.58814523	0.59709835	0.10584979	-0.54749909	0.43952779	0.46199389	-0.52049501	-0.34110205	-0.47166042	-0.71138690	-0.17180800	-0.51162384
843	8.42000000	-0.92974957	-0.24272842	-0.00290982	-0.63620595	0.26717141	-0.64346428	-0.62551013	-0.40284331	-0.36797379	-0.84464509	-0.17116107	-0.05987008	-0.58512094	0.60856009	0.10307944	-0.54594101	0.44357680	0.45744278	-0.51662603	-0.32639480	-0.49295061	-0.71115132	-0.17567073	-0.50783275
844	8.43000000	-0.92859970	-0.24504081	-0.00326724	-0.63728643	0.26744118	-0.64388904	-0.64858769	-0.38527273	-0.35911969	-0.83967439	-0.18315853	-0.05269589	-0.57762901	0.61703605	0.10424020	-0.53717010	0.45098875	0.45710688	-0.51090172	-0.30519276	-0.51237664	-0.71533968	-0.17702297	-0.49940265
845	8.44000000	-0.92491201	-0.24878659	0.00142178	-0.63614869	0.26706786	-0.64554283	-0.66508735	-0.36414002	-0.34859468	-0.83871086	-0.19138805	-0.05847884	-0.57259464	0.61698945	0.09809388	-0.53743346	0.44860482	0.46232781	-0.50983445	-0.28928928	-0.53469196	-0.71771270	-0.18246166	-0.48991754
846	8.45000000	-0.92830227	-0.24879582	0.00185260	-0.64044317	0.26856602	-0.64521840	-0.67485768	-0.34151619	-0.33656082	-0.83868704	-0.20317502	-0.05851386	-0.56610392	0.62435679	0.10265867	-0.53724756	0.45320061	0.46027375	-0.50142636	-0.28185025	-0.55137278	-0.71623828	-0.18587389	-0.48361556
847	8.46000000	-0.93023779	-0.24498262	-0.00483432	-0.63569586	0.26926307	-0.64516756	-0.68839920	-0.32973121	-0.32643291	-0.83034521	-0.21539386	-0.05698584	-0.55822292	0.63393666	0.10647496	-0.53077019	0.46356838	0.45747144	-0.49495824	-0.27575398	-0.56246169	-0.72040418	-0.19376366	-0.47744757
848	8.47000000	-0.92557406	-0.24221995	-0.00311406	-0.63293638	0.27181195	-0.64572587	-0.70167253	-0.31639458	-0.32245966	-0.82537498	-0.22208366	-0.05357139	-0.55134553	0.63988534	0.10214726	-0.52671432	0.46831288	0.45672675	-0.49292305	-0.26943159	-0.57109621	-0.72316025	-0.19794711	-0.46661214
849	8.48000000	-0.92486973	-0.24475606	0.00151331	-0.63611663	0.27285338	-0.64393971	-0.71166758	-0.30065570	-0.31729093	-0.82796313	-0.23419326	-0.04629448	-0.54724520	0.64661187	0.10093251	-0.52475629	0.47219986	0.45491006	-0.48226468	-0.25705330	-0.58360520	-0.71956569	-0.20066678	-0.45615388
850	8.49000000	-0.92575978	-0.24997666	-0.00702730	-0.63085410	0.27202841	-0.64451205	-0.71099517	-0.29158950	-0.31114660	-0.82587674	-0.23949006	-0.05086182	-0.53689405	0.65333668	0.09385319	-0.52391677	0.47140867	0.45684924	-0.47474662	-0.25246385	-0.59344572	-0.71794275	-0.20596041	-0.44857972
851	8.50000000	-0.92851877	-0.25085041	-0.00578185	-0.63157485	0.27504987	-0.64345947	-0.71382273	-0.29387932	-0.30924642	-0.82489090	-0.23646699	-0.04978925	-0.52459947	0.65996155	0.08859484	-0.52239763	0.47178519	0.45695097	-0.48047086	-0.24432106	-0.59723918	-0.72058418	-0.20763972	-0.44148337
852	8.51000000	-0.92824937	-0.24805756	-0.00301654	-0.63438124	0.27544837	-0.64047580	-0.71490266	-0.29812210	-0.30208647	-0.82527529	-0.23209411	-0.04325642	-0.51934195	0.66726526	0.08728807	-0.52302782	0.47845756	0.46147062	-0.48227381	-0.23265478	-0.59837858	-0.72393853	-0.21006184	-0.43712843
853	8.52000000	-0.92681210	-0.24693998	-0.00418550	-0.63482355	0.27727176	-0.64015657	-0.70598575	-0.30419104	-0.29960807	-0.82518096	-0.22822457	-0.03765245	-0.50463159	0.67787366	0.08764387	-0.52217846	0.48203069	0.45424741	-0.48343790	-0.23534021	-0.59728964	-0.71962745	-0.21285504	-0.42709717
854	8.53000000	-0.92651422	-0.24855501	-0.00862459	-0.63714418	0.28297546	-0.63724630	-0.70435034	-0.31424588	-0.30136176	-0.82618051	-0.22268435	-0.02576792	-0.49914992	0.68663748	0.08279647	-0.51905623	0.48028966	0.44688363	-0.49074370	-0.24157413	-0.58677409	-0.71313192	-0.21934125	-0.42567902
855	8.54000000	-0.92203316	-0.24834173	-0.00809927	-0.63389074	0.28238527	-0.63654322	-0.70436653	-0.33051870	-0.30103691	-0.82987437	-0.21178852	-0.02083650	-0.48937122	0.69370779	0.07921540	-0.52034151	0.47910328	0.45182221	-0.50265341	-0.24981065	-0.56748648	-0.70946112	-0.22246271	-0.41919650
856	8.55000000	-0.92252366	-0.24782407	-0.00658532	-0.63344599	0.27956107	-0.63469583	-0.69437043	-0.34808493	-0.30455073	-0.83402749	-0.20680357	-0.01961034	-0.47442619	0.70366025	0.07437106	-0.52494424	0.48601745	0.44925677	-0.51481677	-0.24026264	-0.55798250	-0.71065074	-0.22326653	-0.41340397
857	8.56000000	-0.92476808	-0.25062685	-0.01478381	-0.63807944	0.27908720	-0.63607296	-0.68245676	-0.36082020	-0.29848068	-0.83276466	-0.19952318	-0.00841891	-0.46659015	0.71680948	0.05887785	-0.53176730	0.49012528	0.43324797	-0.52267575	-0.23960829	-0.55315166	-0.71557430	-0.22407018	-0.40909186
858	8.57000000	-0.92726438	-0.25162326	-0.02042894	-0.63741676	0.27669700	-0.63937145	-0.68285755	-0.37440628	-0.29071207	-0.83637814	-0.19734469	-0.00320291	-0.45327873	0.72637297	0.05056054	-0.53219183	0.49214016	0.43005549	-0.52225810	-0.26095870	-0.54172673	-0.71278792	-0.22694801	-0.38986534
859	8.58000000	-0.92791176	-0.25139548	-0.02135991	-0.63567816	0.27452582	-0.63685610	-0.67543717	-0.38838242	-0.27808118	-0.83502643	-0.20183192	-0.00122985	-0.43599145	0.73460016	0.04091263	-0.53181776	0.49300556	0.43060609	-0.53618049	-0.28256452	-0.50699093	-0.71312113	-0.22797016	-0.37998889
860	8.59000000	-0.92969158	-0.25134069	-0.02654915	-0.63011036	0.27342537	-0.63678191	-0.67932552	-0.39246841	-0.26825907	-0.82958828	-0.20379312	0.00983129	-0.42070423	0.74541403	0.03713146	-0.53447600	0.50178210	0.42177067	-0.56596019	-0.28370896	-0.47330792	-0.71481882	-0.22857374	-0.37051422
861	8.60000000	-0.92799717	-0.24534876	-0.03141097	-0.62912641	0.27438346	-0.63986866	-0.68843624	-0.38732581	-0.26735365	-0.82834207	-0.21084111	0.02574719	-0.40658262	0.75246586	0.02946366	-0.53880499	0.50316241	0.40953448	-0.58388963	-0.28297651	-0.45170562	-0.72142635	-0.23206400	-0.35734450
862	8.61000000	-0.92789885	-0.24562840	-0.03423933	-0.63179488	0.27824254	-0.64135972	-0.68362900	-0.38790959	-0.27481632	-0.82475631	-0.22417470	0.03201594	-0.38494404	0.76111316	0.01277054	-0.54592990	0.50284013	0.39416178	-0.58746579	-0.30298136	-0.42635259	-0.73236204	-0.23031487	-0.34579867
863	8.62000000	-0.92998656	-0.24998289	-0.03814521	-0.62802708	0.28033987	-0.64002821	-0.67497837	-0.40524234	-0.28313133	-0.82011218	-0.23694196	0.03576269	-0.36794399	0.77318225	0.00508895	-0.55216491	0.50973708	0.38924354	-0.58672423	-0.31189067	-0.41212879	-0.73447035	-0.22918238	-0.32193195
864	8.63000000	-0.92658605	-0.24330066	-0.03827947	-0.62910892	0.28749922	-0.63763831	-0.66058400	-0.42700229	-0.26862099	-0.82219409	-0.23952485	0.03843406	-0.35180677	0.78113708	0.00068918	-0.56059759	0.50563469	0.38138383	-0.59307231	-0.31142533	-0.40526577	-0.74476393	-0.22221800	-0.29530792
865	8.64000000	-0.92696250	-0.24217634	-0.04219729	-0.62207961	0.30046726	-0.63635403	-0.64926751	-0.44631736	-0.25038372	-0.82330159	-0.23504304	0.03895595	-0.33365469	0.79150819	-0.00650116	-0.56622547	0.50260642	0.37056078	-0.59118816	-0.31298540	-0.39576515	-0.76327993	-0.21300125	-0.26420201
866	8.65000000	-0.92955883	-0.23968537	-0.04662498	-0.62112976	0.30247301	-0.63176630	-0.64276798	-0.46720090	-0.24192874	-0.82405444	-0.22627788	0.04939325	-0.30976124	0.80157942	-0.02598330	-0.57495291	0.49834451	0.36244631	-0.58633216	-0.31285594	-0.39827077	-0.77947871	-0.20705763	-0.21831843
